<?xml version="1.0" encoding="UTF-8"?>
<svg width="512px" height="512px" viewBox="0 0 512 512" version="1.1" xmlns="http://www.w3.org/2000/svg" xmlns:xlink="http://www.w3.org/1999/xlink">
    <!-- Generator: Sketch 53.2 (72643) - https://sketchapp.com -->
    <title>icon</title>
    <desc>Created with Sketch.</desc>
    <defs>
        <linearGradient x1="57.9722583%" y1="1.22128048%" x2="41.828139%" y2="100%" id="linearGradient-1">
            <stop stop-color="#392D00" offset="0%"></stop>
            <stop stop-color="#FACC15" offset="100%"></stop>
        </linearGradient>
    </defs>
    <g id="Page-1" stroke="none" stroke-width="1" fill="none" fill-rule="evenodd">
        <g id="icon" fill-rule="nonzero">
            <rect id="bg" fill="#262626" x="0.992202724" y="-0.000488281" width="511.001949" height="512" rx="100"></rect>
            <g id="fuix" transform="translate(111.000000, 63.000000)">
                <path d="M95.8128655,149 L95.8128655,289.444444 C95.8128655,342.770606 52.9159843,386 0,386 L0,245.555556 C-6.48033887e-15,192.229395 42.8968812,149 95.8128655,149 Z" id="vert" fill="url(#linearGradient-1)"></path>
                <path d="M96.0293102,146 L241.528265,146 C241.528265,199.571621 198.534478,243 145.498955,243 L0,243 C-6.49497819e-15,189.428379 42.9937868,146 96.0293102,146 Z" id="mid" fill="#FACC15"></path>
                <path d="M96.1721637,0 L291.430799,0 L291.430799,0 C291.430799,53.5716206 248.373055,97 195.258635,97 L0,97 L0,97 C-6.50464014e-15,43.4283794 43.0577445,6.56063139e-15 96.1721637,0 Z" id="top" fill="#FACC15"></path>
            </g>
        </g>
    </g>
</svg>